<svg version="1.1" id="Layer_1" xmlns="http://www.w3.org/2000/svg" xmlns:xlink="http://www.w3.org/1999/xlink" x="0px" y="0px"
	 width="100%" viewBox="0 0 512 512" enable-background="new 0 0 512 512" xml:space="preserve">
<path fill="#000000" opacity="1.000000" stroke="none" 
	d="
M88.807266,407.560059 
	C88.724648,335.455017 88.200775,263.799530 88.944870,192.157272 
	C89.204300,167.178497 108.339500,143.743713 136.737122,137.725281 
	C140.495163,136.928818 144.281357,136.622894 148.135483,136.631439 
	C173.963013,136.688644 199.790710,136.668365 225.618362,136.651917 
	C231.853500,136.647949 232.557800,136.077698 232.608841,129.855804 
	C232.719589,116.359642 232.631088,102.861969 232.675293,89.365082 
	C232.722183,75.052689 243.097504,64.619232 257.162903,64.670738 
	C271.014771,64.721458 281.285980,75.095398 281.334534,89.180878 
	C281.382233,103.010994 281.487213,116.843658 281.266205,130.670395 
	C281.194366,135.163696 282.501343,136.784470 287.211945,136.748840 
	C313.204681,136.552292 339.199799,136.639084 365.194031,136.664795 
	C398.670837,136.697906 425.266632,163.151825 425.332306,196.488678 
	C425.371674,216.484161 425.348541,236.479782 425.353363,256.475342 
	C425.353882,258.601379 425.353424,260.727448 425.353424,263.842316 
	C403.273499,257.456573 381.664490,255.260925 359.198242,260.279785 
	C357.739471,241.463852 348.752075,229.054504 329.660065,227.705811 
	C317.904816,226.875412 308.397430,233.034988 302.928955,243.804871 
	C295.802216,257.840515 299.925629,269.891144 310.501282,280.140900 
	C310.178040,282.386200 308.548157,283.128540 307.270447,284.117310 
	C285.790802,300.739014 271.008514,322.029449 263.186035,348.012939 
	C261.870209,352.383636 259.821747,353.815155 255.436523,353.516785 
	C250.129227,353.155640 244.777863,353.476440 239.446274,353.426605 
	C235.577271,353.390442 233.511154,355.160889 233.470139,359.085541 
	C233.423141,363.583252 233.481247,368.083069 233.367905,372.578796 
	C233.292053,375.588135 234.644653,376.728790 237.593582,376.680573 
	C244.033173,376.575256 250.475677,376.647980 257.368317,376.647980 
	C256.833282,402.515961 261.786163,426.466156 274.262817,448.032074 
	C273.213470,449.571503 272.356812,449.542297 271.537476,449.541595 
	C228.214615,449.503937 184.871094,448.626953 141.575989,449.701508 
	C111.405571,450.450287 92.100716,430.262146 88.807266,407.560059 
M214.628830,257.418732 
	C212.881180,236.221481 195.503708,223.417313 176.353683,229.120636 
	C162.038040,233.384201 154.267792,247.450531 155.566025,259.615601 
	C157.212494,275.043915 170.014038,286.515991 184.665649,286.642548 
	C200.171555,286.776489 211.522644,276.017426 214.628830,257.418732 
M172.558044,376.661316 
	C182.377136,376.660156 192.204742,376.414703 202.011841,376.757172 
	C207.192230,376.938049 208.885284,374.766968 208.668976,370.029449 
	C208.532471,367.040222 208.663834,364.039307 208.652466,361.043732 
	C208.626892,354.299713 208.031509,353.566681 201.331039,353.474762 
	C192.345718,353.351410 183.356750,353.509827 174.370789,353.414276 
	C159.291138,353.253937 161.466537,353.759735 161.359512,366.408020 
	C161.262436,377.880585 160.849518,376.589447 172.558044,376.661316 
z"/>
<path fill="#000000" opacity="1.000000" stroke="none" 
	d="
M375.777710,465.777649 
	C371.877472,469.677338 368.260468,473.360901 364.571075,476.970490 
	C361.404877,480.068207 358.207153,480.160187 354.984650,476.937164 
	C334.381866,456.331177 313.740143,435.764099 293.168243,415.127350 
	C289.673798,411.621857 289.719421,408.784027 293.145813,405.148834 
	C296.342072,401.757751 299.709778,398.527405 303.023956,395.248505 
	C307.979248,390.346039 310.273743,390.311310 315.142700,395.171265 
	C328.341980,408.345947 341.517975,421.544006 354.697235,434.738770 
	C359.620178,439.667511 359.600250,439.662598 364.364349,434.899689 
	C394.155243,405.116791 423.946289,375.334106 453.751770,345.565826 
	C459.684357,339.640656 461.612671,339.689819 467.654663,345.717133 
	C470.248138,348.304291 472.843414,350.889740 475.425629,353.488129 
	C480.777802,358.873840 480.777832,360.761353 475.274994,366.264801 
	C455.613495,385.928558 435.926727,405.566986 416.263214,425.228729 
	C402.840179,438.650482 389.439911,452.095062 375.777710,465.777649 
z"/>
<path fill="#000000" opacity="1.000000" stroke="none" 
	d="
M16.651024,335.999878 
	C16.652571,309.683167 16.635136,283.866425 16.663420,258.049744 
	C16.680107,242.819977 26.791954,232.720825 42.013313,232.664322 
	C47.842808,232.642685 53.687202,232.917557 59.497334,232.581802 
	C64.101196,232.315765 65.452484,233.961426 65.433754,238.526550 
	C65.278641,276.334900 65.348793,314.144165 65.348312,351.953156 
	C65.348221,359.115204 65.239693,366.279083 65.377281,373.438385 
	C65.435379,376.461365 64.356285,377.549530 61.310604,377.474213 
	C54.152618,377.297241 46.986649,377.472076 39.826180,377.359802 
	C27.273281,377.163025 17.009676,367.032684 16.690731,354.487518 
	C16.538382,348.495178 16.655949,342.495972 16.651024,335.999878 
z"/>
<path fill="#000000" opacity="1.000000" stroke="none" 
	d="
M448.665405,252.000412 
	C448.672150,246.504730 448.752472,241.507553 448.657623,236.513702 
	C448.605255,233.755905 449.746460,232.629105 452.499512,232.659225 
	C460.158722,232.743042 467.833435,232.405075 475.476105,232.772308 
	C486.763275,233.314682 497.018463,243.262589 497.202637,254.486267 
	C497.560547,276.295410 497.317413,298.114471 497.300934,319.929413 
	C497.300476,320.533752 497.045258,321.137909 496.901154,321.776093 
	C495.032654,321.626434 494.667725,320.160400 494.038483,319.102905 
	C483.616730,301.587646 469.632355,287.566406 452.345459,276.869263 
	C449.542419,275.134735 448.516479,273.149689 448.612732,269.984375 
	C448.789734,264.161194 448.664886,258.328827 448.665405,252.000412 
z"/>
</svg>