<svg width="512" height="512" viewBox="0 0 512 512" fill="none" xmlns="http://www.w3.org/2000/svg">
<g clip-path="url(#clip0_345_307)">
<path d="M338.001 170.978L338.001 170.977C338 168.23 338.083 165.235 338.169 162.091C338.389 154.105 338.635 145.151 337.62 136.822C336.401 126.818 334.148 114.98 328.585 104.862C312.614 75.8126 278.861 60.2404 247.372 65.3368C213.539 70.8128 185.118 94.4704 180.223 129.449C178.637 140.778 178.507 152.129 178.737 163.107C178.829 167.52 178.974 171.757 179.116 175.922C179.339 182.462 179.555 188.825 179.555 195.415V205.415H189.555H189.824H190.093H190.361H190.63H190.899H191.168H191.436H191.705H191.974H192.242H192.511H192.78H193.049H193.317H193.586H193.855H194.124H194.392H194.661H194.93H195.199H195.467H195.736H196.005H196.274H196.543H196.812H197.08H197.349H197.618H197.887H198.156H198.425H198.693H198.962H199.231H199.5H199.769H200.038H200.307H200.576H200.844H201.113H201.382H201.651H201.92H202.189H202.458H202.727H202.996H203.265H203.534H203.803H204.072H204.341H204.61H204.879H205.148H205.417H205.686H205.955H206.224H206.493H206.762H207.031H207.3H207.569H207.838H208.107H208.376H208.645H208.914H209.183H209.452H209.721H209.99H210.26H210.529H210.798H211.067H211.336H211.605H211.874H212.144H212.413H212.682H212.951H213.22H213.489H213.759H214.028H214.297H214.566H214.835H215.105H215.374H215.643H215.912H216.181H216.451H216.72H216.989H217.258H217.528H217.797H218.066H218.336H218.605H218.874H219.144H219.413H219.682H219.951H220.221H220.49H220.76H221.029H221.298H221.568H221.837H222.106H222.376H222.645H222.915H223.184H223.453H223.723H223.992H224.262H224.531H224.8H225.07H225.339H225.609H225.878H226.148H226.417H226.687H226.956H227.226H227.495H227.765H228.034H228.304H228.573H228.843H229.112H229.382H229.652H229.921H230.191H230.46H230.73H230.999H231.269H231.539H231.808H232.078H232.348H232.617H232.887H233.156H233.426H233.696H233.965H234.235H234.505H234.774H235.044H235.314H235.584H235.853H236.123H236.393H236.662H236.932H237.202H237.472H237.741H238.011H238.281H238.551H238.821H239.09H239.36H239.63H239.9H240.17H240.439H240.709H240.979H241.249H241.519H241.789H242.059H242.328H242.598H242.868H243.138H243.408H243.678H243.948H244.218H244.488H244.758H245.028H245.298H245.568H245.838H246.108H246.377H246.647H246.917H247.187H247.458H247.728H247.998H248.268H248.538H248.808H249.078H249.348H249.618H249.888H250.158H250.428H250.698H250.968H251.238H251.509H251.779H252.049H252.319H252.589H252.859H253.129H253.4H253.67H253.94H254.21H254.48H254.751H255.021H255.291H255.561H255.831H256.102H256.372H256.642H256.912H257.183H257.453H257.723H257.994H258.264H258.534H258.805H259.075H259.345H259.616H259.886H260.156H260.427H260.697H260.967H261.238H261.508H261.779H262.049H262.319H262.59H262.86H263.131H263.401H263.672H263.942H264.212H264.483H264.753H265.024H265.294H265.565H265.835H266.106H266.377H266.647H266.918H267.188H267.459H267.729H268H268.27H268.541H268.812H269.082H269.353H269.623H269.894H270.165H270.435H270.706H270.977H271.247H271.518H271.789H272.059H272.33H272.601H272.872H273.142H273.413H273.684H273.954H274.225H274.496H274.767H275.038H275.308H275.579H275.85H276.121H276.392H276.662H276.933H277.204H277.475H277.746H278.017H278.288H278.558H278.829H279.1H279.371H279.642H279.913H280.184H280.455H280.726H280.997H281.268H281.539H281.81H282.081H282.352H282.623H282.894H283.165H283.436H283.707H283.978H284.249H284.52H284.791H285.062H285.333H285.604H285.875H286.146H286.418H286.689H286.96H287.231H287.502H287.773H288.044H288.316H288.587H288.858H289.129H289.4H289.672H289.943H290.214H290.485H290.757H291.028H291.299H291.57H291.842H292.113H292.384H292.656H292.927H293.198H293.47H293.741H294.012H294.284H294.555H294.826H295.098H295.369H295.641H295.912H296.183H296.455H296.726H296.998H297.269H297.541H297.812H298.084H298.355H298.627H298.898H299.17H299.441H299.713H299.984H300.256H300.527H300.799H301.07H301.342H301.614H301.885H302.157H302.428H302.7H302.972H303.243H303.515H303.787H304.058H304.33H304.602H304.873H305.145H305.417H305.689H305.96H306.232H306.504H306.776H307.047H307.319H307.591H307.863H308.135H308.406H308.678H308.95H309.222H309.494H309.766H310.037H310.309H310.581H310.853H311.125H311.397H311.669H311.941H312.213H312.485H312.757H313.029H313.301H313.572H313.844H314.116H314.388H314.661H314.933H315.205H315.477H315.749H316.021H316.293H316.565H316.837H317.109H317.381H317.653H317.925H318.198H318.47H318.742H319.014H319.286H319.558H319.831H320.103H320.375H320.647H320.919H321.192H321.464H321.736H322.009H322.281H322.553H322.825H323.098H323.37H323.642H323.915H324.187H324.459H324.732H325.004H325.276H325.549H325.821H326.094H326.366H326.639H326.911H327.183H327.456H327.728H328.001H338.001V195.415V195.369V195.323V195.277V195.231V195.185V195.139V195.093V195.047V195.001V194.955V194.909V194.863V194.817V194.771V194.725V194.679V194.633V194.587V194.541V194.496V194.45V194.404V194.358V194.312V194.266V194.221V194.175V194.129V194.083V194.037V193.992V193.946V193.9V193.854V193.809V193.763V193.717V193.671V193.626V193.58V193.534V193.489V193.443V193.397V193.352V193.306V193.261V193.215V193.169V193.124V193.078V193.033V192.987V192.941V192.896V192.85V192.805V192.759V192.714V192.668V192.623V192.577V192.532V192.486V192.441V192.395V192.35V192.304V192.259V192.213V192.168V192.122V192.077V192.031V191.986V191.94V191.895V191.85V191.804V191.759V191.713V191.668V191.622V191.577V191.532V191.486V191.441V191.395V191.35V191.305V191.259V191.214V191.169V191.123V191.078V191.032V190.987V190.942V190.896V190.851V190.806V190.76V190.715V190.669V190.624V190.579V190.533V190.488V190.443V190.397V190.352V190.307V190.261V190.216V190.171V190.125V190.08V190.035V189.989V189.944V189.899V189.853V189.808V189.762V189.717V189.672V189.626V189.581V189.536V189.49V189.445V189.4V189.354V189.309V189.264V189.218V189.173V189.127V189.082V189.037V188.991V188.946V188.901V188.855V188.81V188.764V188.719V188.674V188.628V188.583V188.537V188.492V188.446V188.401V188.356V188.31V188.265V188.219V188.174V188.128V188.083V188.037V187.992V187.946V187.901V187.855V187.81V187.764V187.719V187.673V187.628V187.582V187.537V187.491V187.446V187.4V187.355V187.309V187.264V187.218V187.172V187.127V187.081V187.036V186.99V186.944V186.899V186.853V186.807V186.762V186.716V186.67V186.625V186.579V186.533V186.488V186.442V186.396V186.35V186.305V186.259V186.213V186.167V186.122V186.076V186.03V185.984V185.938V185.893V185.847V185.801V185.755V185.709V185.663V185.617V185.571V185.525V185.479V185.434V185.388V185.342V185.296V185.25V185.204V185.158V185.112V185.065V185.019V184.973V184.927V184.881V184.835V184.789V184.743V184.697V184.65V184.604V184.558V184.512V184.466V184.419V184.373V184.327V184.281V184.234V184.188V184.142V184.095V184.049V184.003V183.956V183.91V183.863V183.817V183.77V183.724V183.678V183.631V183.585V183.538V183.491V183.445V183.398V183.352V183.305V183.258V183.212V183.165V183.118V183.072V183.025V182.978V182.932V182.885V182.838V182.791V182.744V182.697V182.651V182.604V182.557V182.51V182.463V182.416V182.369V182.322V182.275V182.228V182.181V182.134V182.087V182.04V181.993V181.945V181.898V181.851V181.804V181.757V181.709V181.662V181.615V181.567V181.52V181.473V181.425V181.378V181.33V181.283V181.235V181.188V181.14V181.093V181.045V180.998V180.95V180.902V180.855V180.807V180.759V180.712V180.664V180.616V180.568V180.521V180.473V180.425V180.377V180.329V180.281V180.233V180.185V180.137V180.089V180.041V179.993V179.945V179.897V179.849V179.8V179.752V179.704V179.656V179.607V179.559V179.511V179.462V179.414V179.365V179.317V179.268V179.22V179.171V179.123V179.074V179.026V178.977V178.928V178.88V178.831V178.782V178.733V178.685V178.636V178.587V178.538V178.489V178.44V178.391V178.342V178.293V178.244V178.195V178.146V178.097V178.047V177.998V177.949V177.9V177.85V177.801V177.752V177.702V177.653V177.603V177.554V177.504V177.455V177.405V177.356V177.306V177.256V177.207V177.157V177.107V177.057V177.007V176.958V176.908V176.858V176.808V176.758V176.708V176.658V176.608V176.558V176.507V176.457V176.407V176.357V176.306V176.256V176.206V176.155V176.105V176.054V176.004V175.953V175.903V175.852V175.802V175.751V175.7V175.649V175.599V175.548V175.497V175.446V175.395V175.344V175.293V175.242V175.191V175.14V175.089V175.038V174.986V174.935V174.884V174.833V174.781V174.73V174.678V174.627V174.575V174.524V174.472V174.421V174.369V174.317V174.266V174.214V174.162V174.11V174.058V174.006V173.954V173.902V173.85V173.798V173.746V173.694V173.642V173.589V173.537V173.485V173.432V173.38V173.328V173.275V173.223V173.17V173.117V173.065V173.012V172.959V172.907V172.854V172.801V172.748V172.695V172.642V172.589V172.536V172.483V172.43V172.377V172.323V172.27V172.217V172.163V172.11V172.057V172.003V171.95V171.896V171.842V171.789V171.735V171.681V171.627V171.574V171.52V171.466V171.412V171.358V171.304V171.25V171.195V171.141V171.087V171.033V170.978ZM220.394 402.976L216.829 415.678H230.022H230.132H230.243H230.353H230.464H230.574H230.685H230.795H230.906H231.016H231.126H231.237H231.347H231.457H231.568H231.678H231.788H231.899H232.009H232.119H232.229H232.34H232.45H232.56H232.67H232.78H232.89H233.001H233.111H233.221H233.331H233.441H233.551H233.661H233.771H233.881H233.991H234.101H234.211H234.321H234.431H234.541H234.651H234.761H234.871H234.981H235.091H235.201H235.31H235.42H235.53H235.64H235.75H235.859H235.969H236.079H236.189H236.299H236.408H236.518H236.628H236.737H236.847H236.957H237.066H237.176H237.286H237.395H237.505H237.615H237.724H237.834H237.943H238.053H238.162H238.272H238.381H238.491H238.6H238.71H238.819H238.929H239.038H239.148H239.257H239.367H239.476H239.585H239.695H239.804H239.914H240.023H240.132H240.242H240.351H240.46H240.57H240.679H240.788H240.897H241.007H241.116H241.225H241.334H241.444H241.553H241.662H241.771H241.88H241.99H242.099H242.208H242.317H242.426H242.535H242.644H242.754H242.863H242.972H243.081H243.19H243.299H243.408H243.517H243.626H243.735H243.844H243.953H244.062H244.171H244.28H244.389H244.498H244.607H244.716H244.825H244.934H245.043H245.151H245.26H245.369H245.478H245.587H245.696H245.805H245.914H246.022H246.131H246.24H246.349H246.458H246.566H246.675H246.784H246.893H247.002H247.11H247.219H247.328H247.436H247.545H247.654H247.763H247.871H247.98H248.089H248.197H248.306H248.415H248.523H248.632H248.741H248.849H248.958H249.067H249.175H249.284H249.392H249.501H249.61H249.718H249.827H249.935H250.044H250.152H250.261H250.369H250.478H250.587H250.695H250.804H250.912H251.021H251.129H251.238H251.346H251.455H251.563H251.671H251.78H251.888H251.997H252.105H252.214H252.322H252.431H252.539H252.647H252.756H252.864H252.973H253.081H253.189H253.298H253.406H253.515H253.623H253.731H253.84H253.948H254.056H254.165H254.273H254.381H254.49H254.598H254.706H254.815H254.923H255.031H255.14H255.248H255.356H255.464H255.573H255.681H255.789H255.898H256.006H256.114H256.222H256.331H256.439H256.547H256.655H256.764H256.872H256.98H257.088H257.196H257.305H257.413H257.521H257.629H257.738H257.846H257.954H258.062H258.17H258.278H258.387H258.495H258.603H258.711H258.819H258.928H259.036H259.144H259.252H259.36H259.468H259.577H259.685H259.793H259.901H260.009H260.117H260.225H260.334H260.442H260.55H260.658H260.766H260.874H260.982H261.09H261.199H261.307H261.415H261.523H261.631H261.739H261.847H261.955H262.063H262.172H262.28H262.388H262.496H262.604H262.712H262.82H262.928H263.036H263.144H263.253H263.361H263.469H263.577H263.685H263.793H263.901H264.009H264.117H264.225H264.333H264.441H264.55H264.658H264.766H264.874H264.982H265.09H265.198H265.306H265.414H265.522H265.63H265.738H265.847H265.955H266.063H266.171H266.279H266.387H266.495H266.603H266.711H266.819H266.927H267.035H267.143H267.252H267.36H267.468H267.576H267.684H267.792H267.9H268.008H268.116H268.224H268.332H268.441H268.549H268.657H268.765H268.873H268.981H269.089H269.197H269.305H269.413H269.521H269.63H269.738H269.846H269.954H270.062H270.17H270.278H270.386H270.494H270.603H270.711H270.819H270.927H271.035H271.143H271.251H271.36H271.468H271.576H271.684H271.792H271.9H272.008H272.117H272.225H272.333H272.441H272.549H272.657H272.766H272.874H272.982H273.09H273.198H273.306H273.415H273.523H273.631H273.739H273.847H273.956H274.064H274.172H274.28H274.388H274.497H274.605H274.713H274.821H274.93H275.038H275.146H275.254H275.363H275.471H275.579H275.687H275.796H275.904H276.012H276.12H276.229H276.337H276.445H276.554H276.662H276.77H276.879H276.987H277.095H277.203H277.312H277.42H277.528H277.637H277.745H277.854H277.962H278.07H278.179H278.287H278.395H278.504H278.612H278.721H278.829H278.937H279.046H279.154H279.263H279.371H279.479H279.588H279.696H279.805H279.913H280.022H280.13H280.239H280.347H280.456H280.564H280.673H280.781H280.89H280.998H281.107H281.215H281.324H281.432H281.541H281.649H281.758H281.867H281.975H282.084H282.192H282.301H282.409H282.518H282.627H282.735H282.844H282.953H283.061H283.17H283.279H283.387H283.496H283.605H283.713H283.822H283.931H284.039H284.148H284.257H284.366H284.474H284.583H284.692H284.801H284.909H285.018H285.127H285.236H285.345H285.453H285.562H285.671H298.335L295.398 403.359L295.393 403.336C294.538 399.748 293.734 396.376 292.322 391.448L285.897 367.724C287.103 365.503 288.282 363.458 289.475 361.389C290.472 359.659 291.479 357.912 292.52 356.031C295.188 351.209 297.846 345.87 299.195 339.873C303.883 319.042 289.322 300.318 271.168 294.181C252.718 287.945 232.243 295.474 222.116 312.116C212.172 328.458 213.54 350.557 229.315 364.03C230.211 364.795 230.557 365.273 230.666 365.446C230.678 365.464 230.687 365.479 230.694 365.491C230.698 365.58 230.697 365.791 230.643 366.174C230.554 366.802 230.357 367.66 229.975 368.97C227.675 376.854 225.463 384.798 223.224 392.839C222.288 396.201 221.348 399.578 220.394 402.976ZM289.251 17.6056C340.522 32.4627 373.298 63.7925 386.995 114.499C389.144 122.455 389.782 131.348 389.859 140.63C390.043 162.575 390.07 184.528 390.094 206.522L390.095 207.604C390.119 229.226 390.143 250.888 390.314 272.554C390.369 279.42 392.46 286.449 395.45 292.103C402.145 304.761 409.406 317.099 416.527 329.2C416.982 329.974 417.437 330.746 417.89 331.517C422.434 339.242 424.437 346.43 424.43 353.297C424.424 360.169 422.403 367.403 417.843 375.212C405.504 396.339 393.282 417.612 381.081 438.849C372.886 453.113 364.7 467.361 356.495 481.537C352.301 488.783 347.412 493.804 341.86 497.046C336.325 500.277 329.553 502.078 321.053 502.007C279.135 501.658 237.221 501.799 195.378 501.939L194 501.944C179.216 501.993 168.654 495.86 161.401 483.521C139.689 446.586 118.416 409.38 97.1134 372.114C89.9494 359.582 90.0977 347.241 97.2158 334.357C100.052 329.223 103.129 323.904 106.264 318.485C111.395 309.615 116.68 300.479 121.315 291.455C124.816 284.639 127.659 276.056 127.758 267.512C128.077 240.032 128.047 212.496 128.016 185.035C128.001 171.493 127.986 157.969 128.013 144.479C128.181 60.4793 206.417 -1.53036 289.251 17.6056Z" stroke="black" stroke-width="20"/>
</g>
<defs>
<clipPath id="clip0_345_307">
<rect width="512" height="512" fill="white"/>
</clipPath>
</defs>
</svg>
