<svg width="512" height="512" viewBox="0 0 512 512" fill="none" xmlns="http://www.w3.org/2000/svg">
<g clip-path="url(#clip0_344_24)">
<path d="M178.001 195.999V205.999H188.001L202.686 205.999C213.37 205.999 223.656 205.999 233.941 205.999C242.859 205.999 251.811 206.032 260.784 206.065C282.493 206.146 304.325 206.226 326.092 205.843C338.705 205.621 347.424 210.626 353.223 220.368C376.317 259.162 398.898 298.271 420.895 337.687C426.761 348.198 426.394 359.706 420.007 370.972C398.693 408.561 377.19 446.029 355.354 483.287C347.944 495.933 337.165 502.064 321.873 501.976C279.171 501.732 236.475 501.821 193.82 501.935C179.095 501.975 168.569 495.764 161.29 483.364C144.192 454.232 127.396 424.932 110.57 395.581C106.212 387.979 101.852 380.373 97.4843 372.765C89.8837 359.528 90.053 346.865 97.7748 333.452C99.8871 329.783 101.733 326.345 103.492 323.068C106.816 316.876 109.832 311.258 113.756 305.74C125.779 288.831 128.775 270.768 128.281 251.872C127.615 226.373 127.749 200.936 127.885 174.977C127.942 164.207 127.999 153.347 127.999 142.356C130.206 73.8727 182.868 18.8729 249.31 14.1861C315.968 9.48389 375.608 55.7401 387.722 121.752C388.813 127.701 389.389 133.909 389.698 140.279C390.067 147.921 387.638 153.687 383.706 157.629C379.707 161.639 373.357 164.543 364.605 164.784C348.727 165.221 338.672 155.566 338.134 142.109C336.347 97.4854 301.98 63.6486 257.93 64.3384C213.616 65.0325 178.208 100.961 178.013 145.384C177.964 156.747 177.976 168.128 177.989 179.755C177.995 185.11 178.001 190.517 178.001 195.999ZM222.577 311.499L221.746 312.514L221.206 313.709C216.957 323.104 214.971 332.292 216.598 341.503C218.202 350.588 223.078 358.313 229.878 365.358C229.931 365.478 229.998 365.656 230.058 365.878C230.133 366.152 230.17 366.39 230.183 366.549C228.23 375.263 225.864 383.785 223.422 392.575C222.495 395.914 221.556 399.292 220.626 402.733L217.218 415.343H230.28H230.391H230.502H230.614H230.725H230.836H230.947H231.058H231.17H231.281H231.392H231.503H231.614H231.725H231.836H231.947H232.058H232.169H232.28H232.391H232.502H232.613H232.724H232.835H232.946H233.057H233.167H233.278H233.389H233.5H233.61H233.721H233.832H233.942H234.053H234.164H234.274H234.385H234.495H234.606H234.717H234.827H234.938H235.048H235.158H235.269H235.379H235.49H235.6H235.71H235.821H235.931H236.041H236.152H236.262H236.372H236.482H236.593H236.703H236.813H236.923H237.033H237.143H237.254H237.364H237.474H237.584H237.694H237.804H237.914H238.024H238.134H238.244H238.354H238.463H238.573H238.683H238.793H238.903H239.013H239.122H239.232H239.342H239.452H239.562H239.671H239.781H239.891H240H240.11H240.22H240.329H240.439H240.548H240.658H240.768H240.877H240.987H241.096H241.206H241.315H241.424H241.534H241.643H241.753H241.862H241.972H242.081H242.19H242.3H242.409H242.518H242.627H242.737H242.846H242.955H243.064H243.174H243.283H243.392H243.501H243.61H243.719H243.829H243.938H244.047H244.156H244.265H244.374H244.483H244.592H244.701H244.81H244.919H245.028H245.137H245.246H245.355H245.464H245.573H245.681H245.79H245.899H246.008H246.117H246.226H246.334H246.443H246.552H246.661H246.769H246.878H246.987H247.096H247.204H247.313H247.422H247.53H247.639H247.748H247.856H247.965H248.073H248.182H248.291H248.399H248.508H248.616H248.725H248.833H248.942H249.05H249.159H249.267H249.376H249.484H249.593H249.701H249.809H249.918H250.026H250.134H250.243H250.351H250.46H250.568H250.676H250.784H250.893H251.001H251.109H251.218H251.326H251.434H251.542H251.651H251.759H251.867H251.975H252.083H252.191H252.3H252.408H252.516H252.624H252.732H252.84H252.948H253.056H253.165H253.273H253.381H253.489H253.597H253.705H253.813H253.921H254.029H254.137H254.245H254.353H254.461H254.569H254.677H254.785H254.893H255H255.108H255.216H255.324H255.432H255.54H255.648H255.756H255.864H255.971H256.079H256.187H256.295H256.403H256.51H256.618H256.726H256.834H256.942H257.049H257.157H257.265H257.373H257.48H257.588H257.696H257.804H257.911H258.019H258.127H258.234H258.342H258.45H258.557H258.665H258.773H258.88H258.988H259.096H259.203H259.311H259.419H259.526H259.634H259.741H259.849H259.957H260.064H260.172H260.279H260.387H260.494H260.602H260.71H260.817H260.925H261.032H261.14H261.247H261.355H261.462H261.57H261.677H261.785H261.892H262H262.107H262.215H262.322H262.43H262.537H262.644H262.752H262.859H262.967H263.074H263.182H263.289H263.397H263.504H263.611H263.719H263.826H263.934H264.041H264.148H264.256H264.363H264.471H264.578H264.685H264.793H264.9H265.007H265.115H265.222H265.33H265.437H265.544H265.652H265.759H265.866H265.974H266.081H266.188H266.296H266.403H266.51H266.618H266.725H266.832H266.94H267.047H267.154H267.262H267.369H267.476H267.584H267.691H267.798H267.906H268.013H268.12H268.227H268.335H268.442H268.549H268.657H268.764H268.871H268.978H269.086H269.193H269.3H269.408H269.515H269.622H269.729H269.837H269.944H270.051H270.159H270.266H270.373H270.48H270.588H270.695H270.802H270.91H271.017H271.124H271.231H271.339H271.446H271.553H271.661H271.768H271.875H271.982H272.09H272.197H272.304H272.412H272.519H272.626H272.733H272.841H272.948H273.055H273.163H273.27H273.377H273.484H273.592H273.699H273.806H273.914H274.021H274.128H274.236H274.343H274.45H274.557H274.665H274.772H274.879H274.987H275.094H275.201H275.309H275.416H275.523H275.631H275.738H275.845H275.953H276.06H276.167H276.275H276.382H276.49H276.597H276.704H276.812H276.919H277.026H277.134H277.241H277.348H277.456H277.563H277.671H277.778H277.885H277.993H278.1H278.208H278.315H278.422H278.53H278.637H278.745H278.852H278.96H279.067H279.175H279.282H279.389H279.497H279.604H279.712H279.819H279.927H280.034H280.142H280.249H280.357H280.464H280.572H280.679H280.787H280.894H281.002H281.109H281.217H281.324H281.432H281.54H281.647H281.755H281.862H281.97H282.077H282.185H282.293H282.4H282.508H282.616H282.723H282.831H282.938H283.046H283.154H283.261H283.369H283.477H283.584H283.692H283.8H283.907H284.015H284.123H284.231H284.338H284.446H284.554H284.662H284.769H284.877H284.985H285.093H285.2H285.308H285.416H285.524H285.632H285.739H298.744L295.404 402.774C294.771 400.392 294.155 398.062 293.55 395.771C292.197 390.654 290.896 385.73 289.564 380.839C288.213 375.88 286.817 370.908 285.499 366.213C285.461 366.079 285.423 365.944 285.385 365.809C286.123 365.035 286.905 364.214 287.788 363.259C289.896 360.98 292.259 358.257 294.217 355.01L285.654 349.846L294.217 355.01C305.761 335.869 299.625 311.53 281.579 299.221L275.944 307.482L281.579 299.221C272.154 292.792 261.431 290.377 250.649 292.753C240.065 295.085 230.529 301.779 222.577 311.499Z" stroke="black" stroke-width="20"/>
</g>
<defs>
<clipPath id="clip0_344_24">
<rect width="512" height="512" fill="white"/>
</clipPath>
</defs>
</svg>
