<?xml version="1.0" standalone="no"?>
<svg version="1.0" xmlns="http://www.w3.org/2000/svg"
 width="256.000000pt" height="256.000000pt" viewBox="0 0 256.000000 256.000000">

<g transform="translate(0.000000,256.000000) scale(0.100000,-0.100000)"
fill="#000000" stroke="none">
<path d="M1132 2480 c-109 -29 -187 -74 -273 -160 -189 -188 -232 -465 -107
-703 49 -93 167 -208 259 -252 182 -86 379 -84 552 7 93 49 208 167 252 259
65 138 80 276 45 413 -29 113 -73 190 -160 277 -152 153 -363 212 -568 159z
m247 -141 c201 -46 352 -235 351 -439 -1 -246 -206 -451 -450 -450 -286 2
-503 273 -439 549 45 198 231 348 434 350 33 0 80 -4 104 -10z"/>
<path d="M700 1289 c-25 -5 -73 -22 -107 -39 -197 -97 -327 -426 -311 -781 5
-93 10 -117 36 -174 39 -82 110 -153 199 -197 l68 -33 660 -3 c703 -3 738 -1
828 45 118 59 179 155 199 310 43 350 -97 730 -306 833 -72 36 -174 56 -228
46 -20 -3 -69 -28 -110 -55 -95 -62 -119 -74 -202 -100 -90 -28 -205 -28 -285
-1 -32 11 -108 47 -167 80 -147 82 -174 88 -274 69z m209 -204 c159 -88 213
-106 341 -112 162 -8 302 35 453 138 54 37 64 41 104 35 60 -8 135 -49 172
-93 44 -52 96 -164 123 -265 19 -70 23 -107 23 -243 0 -147 -2 -164 -24 -208
-13 -26 -38 -59 -57 -73 -70 -54 -75 -54 -771 -54 -630 0 -644 0 -687 21 -52
24 -109 76 -133 122 -22 42 -29 218 -13 330 26 177 103 351 181 409 44 32 102
54 153 57 10 0 71 -28 135 -64z"/>
</g>
</svg>