<?xml version="1.0" standalone="no"?>
<svg version="1.0" xmlns="http://www.w3.org/2000/svg"
 width="256.000000pt" height="256.000000pt" viewBox="0 0 256.000000 256.000000"
 preserveAspectRatio="xMidYMid meet">

<g transform="translate(0.000000,256.000000) scale(0.100000,-0.100000)"
fill="#000000" stroke="none">
<path d="M1132 2480 c-109 -29 -187 -74 -273 -160 -189 -188 -232 -465 -107
-703 49 -93 167 -208 259 -252 182 -86 379 -84 552 7 93 49 208 167 252 259
65 138 80 276 45 413 -29 113 -73 190 -160 277 -152 153 -363 212 -568 159z
m247 -141 c201 -46 352 -235 351 -439 -1 -246 -206 -451 -450 -450 -286 2
-503 273 -439 549 45 198 231 348 434 350 33 0 80 -4 104 -10z"/>
<path d="M700 1289 c-25 -5 -73 -22 -107 -39 -197 -97 -327 -426 -311 -781 5
-93 10 -117 36 -174 39 -82 110 -153 199 -197 l68 -33 397 -3 398 -3 0 76 0
75 -375 0 c-359 0 -377 1 -419 21 -52 24 -109 76 -133 122 -22 42 -29 218 -13
330 25 171 101 347 176 406 36 29 79 47 132 56 38 6 51 2 159 -59 161 -89 215
-107 343 -113 162 -8 302 35 453 138 54 37 64 41 104 35 51 -7 130 -45 159
-78 12 -12 34 -42 49 -65 l28 -43 78 0 c44 0 79 3 79 6 0 3 -17 38 -37 76 -75
142 -183 226 -324 250 -87 15 -124 6 -211 -51 -95 -62 -119 -74 -202 -100 -90
-28 -205 -28 -285 -1 -32 11 -108 47 -167 80 -147 82 -174 88 -274 69z"/>
<path d="M1797 892 c-14 -16 -17 -44 -17 -180 l0 -162 -158 0 c-141 0 -161 -2
-175 -18 -21 -23 -22 -46 -1 -66 13 -13 43 -16 175 -16 l159 0 0 -154 c0 -164
6 -186 50 -186 44 0 50 22 50 186 l0 154 159 0 c132 0 162 3 175 16 21 21 20
47 -2 67 -16 14 -43 17 -175 17 l-157 0 0 163 c0 146 -2 166 -18 180 -24 22
-45 21 -65 -1z"/>
</g>
</svg>
