<svg width="1440" height="100" viewBox="0 0 1440 100" fill="none" xmlns="http://www.w3.org/2000/svg">
<path fill-rule="evenodd" clip-rule="evenodd" d="M1440 63.4921L1392 69.8413C1344 76.1905 1248 88.8889 1152 95.2381C1056 101.587 960 101.587 864 95.2381C768 88.8889 672 76.1905 576 63.4921C480 50.7937 384 38.0952 288 40.2116C192 42.328 96 59.2593 48 67.7249L0 76.1905V-7.15256e-07H48C96 -7.15256e-07 192 -7.15256e-07 288 -7.15256e-07C384 -7.15256e-07 480 -7.15256e-07 576 -7.15256e-07C672 -7.15256e-07 768 -7.15256e-07 864 -7.15256e-07C960 -7.15256e-07 1056 -7.15256e-07 1152 -7.15256e-07C1248 -7.15256e-07 1344 -7.15256e-07 1392 -7.15256e-07H1440V63.4921Z" fill="black"/>
</svg>