<svg width="1440" height="100" viewBox="0 0 1440 100" fill="none" xmlns="http://www.w3.org/2000/svg">
<path fill-rule="evenodd" clip-rule="evenodd" d="M0 36.5079L48 30.1587C96 23.8095 192 11.1111 288 4.7619C384 -1.5873 480 -1.5873 576 4.7619C672 11.1111 768 23.8095 864 36.5079C960 49.2063 1056 61.9048 1152 59.7884C1248 57.672 1344 40.7407 1392 32.2751L1440 23.8095V100H1392C1344 100 1248 100 1152 100C1056 100 960 100 864 100C768 100 672 100 576 100C480 100 384 100 288 100C192 100 96 100 48 100H0V36.5079Z" fill="#000000"/>
</svg>